<svg width="40" height="40" viewBox="0 0 40 40" fill="none" xmlns="http://www.w3.org/2000/svg">
<g clip-path="url(#clip0_60_727)">
<path d="M17.2015 5.70661C17.0881 5.59291 16.9533 5.50269 16.805 5.44114C16.6566 5.37958 16.4976 5.3479 16.337 5.3479C16.1764 5.3479 16.0174 5.37958 15.869 5.44114C15.7207 5.50269 15.586 5.59291 15.4725 5.70661L0.820643 20.3585C0.707331 20.4721 0.617519 20.6069 0.556343 20.7553C0.495167 20.9036 0.463827 21.0625 0.464113 21.223V38.3169C0.464113 38.6407 0.592753 38.9513 0.821734 39.1802C1.05071 39.4092 1.36128 39.5379 1.68511 39.5379H12.674C12.9979 39.5379 13.3084 39.4092 13.5374 39.1802C13.7664 38.9513 13.895 38.6407 13.895 38.3169V28.5489H18.779V38.3169C18.779 38.6407 18.9076 38.9513 19.1366 39.1802C19.3656 39.4092 19.6762 39.5379 20 39.5379H30.9889C31.3127 39.5379 31.6233 39.4092 31.8523 39.1802C32.0813 38.9513 32.2099 38.6407 32.2099 38.3169V21.223C32.2102 21.0625 32.1789 20.9036 32.1177 20.7553C32.0565 20.6069 31.9667 20.4721 31.8534 20.3585L28.5469 17.0545V9.01306C28.5469 8.68923 28.4183 8.37867 28.1893 8.14969C27.9603 7.92071 27.6498 7.79207 27.3259 7.79207H24.884C24.5601 7.79207 24.2496 7.92071 24.0206 8.14969C23.7916 8.37867 23.663 8.68923 23.663 9.01306V12.1705L17.2015 5.70661ZM2.9061 37.0959V21.7285L16.337 8.29756L29.7679 21.7285V37.0959H21.221V27.3279C21.221 27.0041 21.0923 26.6935 20.8634 26.4646C20.6344 26.2356 20.3238 26.1069 20 26.1069H12.674C12.3502 26.1069 12.0396 26.2356 11.8107 26.4646C11.5817 26.6935 11.453 27.0041 11.453 27.3279V37.0959H2.9061Z" fill="#E6E6E6" fill-opacity="0.6"/>
<path d="M24.5273 5.70661C24.4139 5.59291 24.2791 5.50269 24.1308 5.44114C23.9824 5.37958 23.8234 5.3479 23.6628 5.3479C23.5022 5.3479 23.3432 5.37958 23.1948 5.44114C23.0465 5.50269 22.9118 5.59291 22.7984 5.70661L8.14645 20.3585C8.03314 20.4721 7.94332 20.6069 7.88215 20.7553C7.82097 20.9036 7.78963 21.0625 7.78992 21.223V38.3169C7.78992 38.6407 7.91856 38.9513 8.14754 39.1802C8.37652 39.4092 8.68708 39.5379 9.01091 39.5379H19.9998C20.3237 39.5379 20.6342 39.4092 20.8632 39.1802C21.0922 38.9513 21.2208 38.6407 21.2208 38.3169V28.5489H26.1048V38.3169C26.1048 38.6407 26.2334 38.9513 26.4624 39.1802C26.6914 39.4092 27.002 39.5379 27.3258 39.5379H38.3147C38.6385 39.5379 38.9491 39.4092 39.1781 39.1802C39.4071 38.9513 39.5357 38.6407 39.5357 38.3169V21.223C39.536 21.0625 39.5047 20.9036 39.4435 20.7553C39.3823 20.6069 39.2925 20.4721 39.1792 20.3585L35.8727 17.0545V9.01306C35.8727 8.68923 35.7441 8.37867 35.5151 8.14969C35.2861 7.92071 34.9756 7.79207 34.6517 7.79207H32.2098C31.8859 7.79207 31.5754 7.92071 31.3464 8.14969C31.1174 8.37867 30.9888 8.68923 30.9888 9.01306V12.1705L24.5273 5.70661ZM10.2319 37.0959V21.7285L23.6628 8.29756L37.0937 21.7285V37.0959H28.5468V27.3279C28.5468 27.0041 28.4181 26.6935 28.1892 26.4646C27.9602 26.2356 27.6496 26.1069 27.3258 26.1069H19.9998C19.676 26.1069 19.3654 26.2356 19.1365 26.4646C18.9075 26.6935 18.7788 27.0041 18.7788 27.3279V37.0959H10.2319Z" fill="#FF9505"/>
</g>
<defs>
<clipPath id="clip0_60_727">
<rect width="39.0717" height="39.0717" fill="white" transform="translate(0.464111 0.464111)"/>
</clipPath>
</defs>
</svg>
